<svg width="33" height="30" viewBox="0 0 33 30" fill="none" xmlns="http://www.w3.org/2000/svg">
<path d="M17.299 4.63923C17.1993 4.54386 17.0666 4.49063 16.9287 4.49063C16.7907 4.49063 16.6581 4.54386 16.5584 4.63923L4.2302 16.4163C4.17784 16.4664 4.13619 16.5265 4.10776 16.5932C4.07933 16.6598 4.06472 16.7315 4.0648 16.804L4.06279 27.8571C4.06279 28.4255 4.28856 28.9705 4.69042 29.3724C5.09228 29.7742 5.63733 30 6.20565 30H12.6409C12.9251 30 13.1976 29.8871 13.3986 29.6862C13.5995 29.4853 13.7124 29.2127 13.7124 28.9286V19.8214C13.7124 19.6793 13.7688 19.5431 13.8693 19.4426C13.9697 19.3421 14.106 19.2857 14.2481 19.2857H19.6052C19.7473 19.2857 19.8836 19.3421 19.984 19.4426C20.0845 19.5431 20.141 19.6793 20.141 19.8214V28.9286C20.141 29.2127 20.2538 29.4853 20.4548 29.6862C20.6557 29.8871 20.9282 30 21.2124 30H27.645C28.2133 30 28.7584 29.7742 29.1602 29.3724C29.5621 28.9705 29.7879 28.4255 29.7879 27.8571V16.804C29.7879 16.7315 29.7733 16.6598 29.7449 16.5932C29.7165 16.5265 29.6748 16.4664 29.6224 16.4163L17.299 4.63923Z" fill="#1D1D1C"/>
<path d="M32.6576 14.2065L27.6486 9.41453V2.14286C27.6486 1.8587 27.5358 1.58618 27.3348 1.38525C27.1339 1.18431 26.8614 1.07143 26.5772 1.07143H23.3629C23.0788 1.07143 22.8062 1.18431 22.6053 1.38525C22.4044 1.58618 22.2915 1.8587 22.2915 2.14286V4.28572L18.4129 0.577233C18.05 0.210268 17.5102 0 16.927 0C16.3457 0 15.8073 0.210268 15.4444 0.577903L1.20103 14.2052C0.784512 14.607 0.73228 15.2679 1.1113 15.7032C1.20648 15.813 1.32301 15.9024 1.45382 15.9658C1.58463 16.0292 1.72697 16.0653 1.87218 16.0719C2.01738 16.0786 2.16243 16.0556 2.29847 16.0044C2.43452 15.9532 2.55873 15.8749 2.66353 15.7741L16.5587 2.49643C16.6584 2.40106 16.791 2.34784 16.929 2.34784C17.0669 2.34784 17.1996 2.40106 17.2993 2.49643L31.1957 15.7741C31.4004 15.9704 31.6746 16.0776 31.9582 16.0721C32.2418 16.0665 32.5116 15.9488 32.7085 15.7447C33.1196 15.3188 33.0855 14.6157 32.6576 14.2065Z" fill="#1D1D1C"/>
</svg>
