<svg width="126" height="129" viewBox="0 0 126 129" fill="none" xmlns="http://www.w3.org/2000/svg">
<path d="M63.1867 41.9872C58.7659 41.9872 54.4444 43.3005 50.7687 45.7611C47.093 48.2217 44.2281 51.719 42.5363 55.8108C40.8446 59.9027 40.4019 64.4052 41.2644 68.749C42.1268 73.0929 44.2556 77.083 47.3816 80.2147C50.5075 83.3464 54.4902 85.4792 58.826 86.3432C63.1619 87.2073 67.6561 86.7638 71.7403 85.0689C75.8246 83.374 79.3154 80.5038 81.7715 76.8213C84.2275 73.1388 85.5384 68.8093 85.5384 64.3803C85.5207 58.4467 83.1601 52.7613 78.9722 48.5656C74.7843 44.3699 69.1093 42.0049 63.1867 41.9872ZM111.444 64.3803C111.432 66.4727 111.279 68.562 110.986 70.6336L124.59 81.304C125.182 81.7941 125.581 82.4793 125.716 83.2372C125.851 83.9951 125.712 84.7763 125.325 85.4411L112.456 107.7C112.064 108.359 111.454 108.858 110.731 109.111C110.008 109.363 109.22 109.352 108.505 109.08L92.5094 102.642C89.1786 105.211 85.5337 107.344 81.6632 108.988L79.2715 126.001C79.1377 126.763 78.7438 127.455 78.1573 127.958C77.5707 128.461 76.8279 128.745 76.0557 128.761H50.3176C49.5595 128.746 48.8287 128.474 48.2447 127.99C47.6606 127.505 47.2577 126.837 47.1018 126.093L44.7101 109.08C40.829 107.455 37.1814 105.319 33.864 102.729L17.8685 109.167C17.1535 109.439 16.3654 109.451 15.6428 109.199C14.9203 108.947 14.3095 108.448 13.9178 107.789L1.04879 85.5335C0.661427 84.8687 0.522653 84.0875 0.657265 83.3296C0.791878 82.5717 1.19111 81.8865 1.7836 81.3963L15.3874 70.726C15.0973 68.623 14.9442 66.5033 14.9292 64.3803C14.9409 62.2879 15.0939 60.1987 15.3874 58.127L1.7836 47.4567C1.19111 46.9666 0.791878 46.2813 0.657265 45.5234C0.522653 44.7655 0.661427 43.9844 1.04879 43.3196L13.9178 21.0608C14.309 20.4018 14.9196 19.9022 15.6422 19.6498C16.3648 19.3974 17.1532 19.4084 17.8685 19.6808L33.864 26.1188C37.1947 23.5492 40.8396 21.4167 44.7101 19.7732L47.1018 2.75996C47.2356 1.99789 47.6295 1.30604 48.216 0.802639C48.8026 0.299239 49.5454 0.0155317 50.3176 0H76.0557C76.8138 0.0147838 77.5446 0.286608 78.1286 0.771099C78.7127 1.25559 79.1156 1.92413 79.2715 2.66758L81.6632 19.6808C85.5492 21.3042 89.2016 23.4402 92.5233 26.032L108.505 19.594C109.22 19.3214 110.008 19.31 110.73 19.5618C111.453 19.8137 112.064 20.3128 112.456 20.9712L125.325 43.23C125.712 43.8948 125.851 44.676 125.716 45.4339C125.581 46.1918 125.182 46.877 124.59 47.3671L110.986 58.0375C111.276 60.1395 111.429 62.2583 111.444 64.3803Z" fill="white"/>
</svg>
