<svg width="134" height="133" viewBox="0 0 134 133" fill="none" xmlns="http://www.w3.org/2000/svg">
<path d="M91.9072 92.2349C93.6473 86.1402 94.7985 79.0593 95.2372 72.261C95.2469 72.0834 95.22 71.9056 95.1581 71.7389C95.0963 71.5721 95.0009 71.4198 94.8777 71.2914C94.7546 71.163 94.6064 71.0613 94.4424 70.9926C94.2783 70.9239 94.1019 70.8896 93.924 70.8919H73.002C72.8307 70.8903 72.6608 70.9225 72.502 70.9866C72.3432 71.0508 72.1985 71.1455 72.0763 71.2656C71.9541 71.3856 71.8567 71.5285 71.7897 71.6862C71.7228 71.8438 71.6875 72.0131 71.6859 72.1844V88.4662C71.6896 88.7951 71.8172 89.1105 72.0431 89.3495C72.269 89.5885 72.5767 89.7336 72.9049 89.7558C78.8009 90.2323 84.6264 91.3569 90.2761 93.1093C90.6083 93.2092 90.9666 93.1733 91.2724 93.0094C91.5782 92.8454 91.8065 92.5669 91.9072 92.2349ZM86.8519 101.898C82.3696 100.589 77.7771 99.6935 73.1316 99.2216C72.9521 99.2016 72.7705 99.2191 72.5982 99.273C72.4259 99.3269 72.2667 99.4162 72.1307 99.535C71.9947 99.6537 71.885 99.7995 71.8084 99.9631C71.7318 100.127 71.6901 100.304 71.6859 100.485V119.693C71.693 119.922 71.7598 120.146 71.8797 120.341C71.9996 120.536 72.1684 120.697 72.3695 120.807C72.5706 120.917 72.797 120.973 73.0262 120.968C73.2554 120.964 73.4795 120.9 73.6763 120.783C78.3577 118.053 82.2147 113.469 85.7007 107.407C86.2719 106.417 87.1404 104.713 87.6645 103.67C87.7459 103.503 87.7891 103.319 87.7912 103.133C87.7932 102.946 87.754 102.762 87.6764 102.592C87.5987 102.423 87.4845 102.273 87.3419 102.153C87.1994 102.033 87.032 101.946 86.8519 101.898ZM60.8569 99.2746C56.2172 99.716 51.6281 100.585 47.1484 101.871C46.3711 102.095 46.0443 103.167 46.3976 103.871C46.9246 104.919 47.5753 106.258 48.1318 107.259C51.9593 114.031 56.0342 118.3 60.274 120.783C60.4708 120.9 60.6949 120.964 60.9241 120.968C61.1533 120.973 61.3796 120.917 61.5807 120.807C61.7818 120.697 61.9507 120.536 62.0705 120.341C62.1904 120.146 62.2572 119.922 62.2643 119.693V100.476C62.2629 100.3 62.2238 100.127 62.1497 99.9683C62.0755 99.8093 61.9681 99.6681 61.8347 99.5542C61.7012 99.4403 61.5449 99.3564 61.3762 99.3081C61.2075 99.2599 61.0304 99.2485 60.8569 99.2746ZM60.9482 70.8919H40.0262C39.8486 70.8896 39.6725 70.9238 39.5086 70.9924C39.3448 71.0609 39.1967 71.1624 39.0736 71.2904C38.9505 71.4185 38.855 71.5704 38.793 71.7368C38.731 71.9033 38.7038 72.0807 38.7131 72.258C39.1488 79.0475 40.2941 86.1432 42.0283 92.2319C42.0775 92.3986 42.1593 92.5538 42.2689 92.6886C42.3785 92.8234 42.5137 92.9351 42.6668 93.0173C42.8199 93.0994 42.9877 93.1504 43.1607 93.1672C43.3336 93.184 43.5081 93.1663 43.6742 93.1152C49.3234 91.3627 55.1493 90.241 61.0454 89.7705C61.374 89.749 61.6825 89.6043 61.909 89.3652C62.1355 89.1261 62.2635 88.8103 62.2672 88.4809V72.1874C62.2661 72.0156 62.231 71.8457 62.164 71.6875C62.097 71.5293 61.9995 71.3859 61.8769 71.2655C61.7543 71.1452 61.6092 71.0502 61.4498 70.9861C61.2904 70.9219 61.12 70.8899 60.9482 70.8919ZM73.1375 33.1405C77.7799 32.7055 82.3667 31.8039 86.8283 30.4494C87.0074 30.401 87.1737 30.3138 87.3153 30.194C87.457 30.0743 87.5706 29.9248 87.6481 29.7563C87.7256 29.5878 87.7652 29.4043 87.7639 29.2188C87.7627 29.0333 87.7207 28.8503 87.6409 28.6828C87.1139 27.6317 86.3837 26.1272 85.8243 25.1232C82.2058 18.6458 78.128 14.1264 73.6822 11.5796C73.4852 11.4629 73.2613 11.3996 73.0324 11.3957C72.8035 11.3918 72.5776 11.4476 72.3768 11.5575C72.176 11.6674 72.0072 11.8277 71.8872 12.0225C71.7671 12.2174 71.6997 12.4402 71.6918 12.669V31.8744C71.6961 32.055 71.7378 32.2328 71.8143 32.3964C71.8909 32.5601 72.0006 32.7061 72.1365 32.8251C72.2724 32.9441 72.4315 33.0336 72.6038 33.0879C72.7762 33.1422 72.9579 33.1601 73.1375 33.1405ZM73.002 61.4702H93.924C94.1003 61.4732 94.2753 61.4401 94.4383 61.3729C94.6013 61.3057 94.7489 61.2059 94.8719 61.0796C94.9949 60.9533 95.0907 60.8032 95.1535 60.6384C95.2164 60.4737 95.2448 60.2979 95.2372 60.1217C94.8014 53.4176 93.6855 46.0481 91.9514 40.0359C91.9006 39.8706 91.8178 39.717 91.7075 39.5838C91.5973 39.4506 91.4618 39.3405 91.3088 39.2598C91.1559 39.1791 90.9886 39.1294 90.8164 39.1135C90.6442 39.0977 90.4706 39.116 90.3055 39.1674C84.7114 40.8574 78.8847 42.2382 72.9078 42.7005C72.5812 42.719 72.2737 42.8605 72.047 43.0964C71.8204 43.3323 71.6914 43.6453 71.6859 43.9724V60.1983C71.6921 60.5414 71.8342 60.868 72.0809 61.1064C72.3277 61.3449 72.6589 61.4757 73.002 61.4702ZM60.274 11.5825C55.7339 14.1058 51.6855 18.7754 48.0641 25.2351C47.5017 26.2391 46.8304 27.6229 46.2975 28.6711C46.2183 28.8386 46.1767 29.0215 46.1757 29.2068C46.1748 29.3922 46.2144 29.5755 46.2918 29.7438C46.3693 29.9122 46.4827 30.0616 46.6241 30.1815C46.7654 30.3013 46.9313 30.3888 47.1101 30.4376C51.57 31.817 56.163 32.722 60.8128 33.1375C60.9921 33.1571 61.1736 33.1393 61.3457 33.0852C61.5178 33.0311 61.6768 32.9418 61.8127 32.8231C61.9486 32.7044 62.0583 32.5588 62.135 32.3955C62.2118 32.2322 62.2538 32.0548 62.2584 31.8744V12.6719C62.2491 12.4444 62.1812 12.2231 62.0612 12.0295C61.9412 11.8359 61.7733 11.6766 61.5737 11.567C61.3741 11.4575 61.1495 11.4013 60.9218 11.404C60.6941 11.4067 60.4709 11.4682 60.274 11.5825ZM61.0424 42.7034C55.0655 42.2471 49.2329 40.8662 43.6447 39.1703C43.4796 39.1189 43.306 39.1006 43.1338 39.1165C42.9617 39.1323 42.7943 39.182 42.6414 39.2627C42.4885 39.3434 42.353 39.4535 42.2427 39.5867C42.1325 39.7199 42.0496 39.8736 41.9989 40.0389C40.2647 46.0511 39.1488 53.4206 38.7131 60.1247C38.7054 60.3008 38.7339 60.4767 38.7967 60.6414C38.8595 60.8061 38.9554 60.9562 39.0784 61.0826C39.2014 61.2089 39.3489 61.3087 39.5119 61.3758C39.6749 61.443 39.8499 61.4761 40.0262 61.4732H60.9482C61.1186 61.4759 61.2878 61.445 61.4462 61.3822C61.6046 61.3194 61.7491 61.226 61.8714 61.1073C61.9936 60.9886 62.0912 60.847 62.1587 60.6905C62.2261 60.534 62.262 60.3657 62.2643 60.1953V43.9754C62.2589 43.6482 62.1299 43.3353 61.9032 43.0994C61.6766 42.8634 61.369 42.722 61.0424 42.7034Z" fill="white"/>
<path d="M113.589 19.5469C107.476 13.3733 100.203 8.46831 92.1884 5.11386C84.1739 1.75942 75.5756 0.0215836 66.8874 0.000199776C58.1992 -0.021184 49.5924 1.6743 41.5615 4.98925C33.5305 8.30421 26.2337 13.1733 20.0902 19.3168C13.9467 25.4603 9.07765 32.7571 5.76269 40.788C2.44774 48.819 0.752253 57.4258 0.773637 66.1139C0.795021 74.8021 2.53285 83.4005 5.8873 91.415C9.24174 99.4295 14.1467 106.702 20.3203 112.815C26.4335 118.989 33.7063 123.894 41.7208 127.249C49.7353 130.603 58.3337 132.341 67.0219 132.362C75.71 132.384 84.3168 130.688 92.3478 127.373C100.379 124.058 107.676 119.189 113.819 113.046C119.963 106.902 124.832 99.6053 128.147 91.5743C131.462 83.5434 133.157 74.9366 133.136 66.2484C133.114 57.5602 131.376 48.9619 128.022 40.9474C124.668 32.9328 119.763 25.6601 113.589 19.5469ZM43.5771 117.662C42.2506 115.799 41.024 113.867 39.9027 111.873C39.3138 110.787 38.4776 109.147 37.9212 108.007C37.7936 107.737 37.611 107.496 37.3851 107.301C37.1591 107.105 36.8948 106.959 36.6091 106.871C36.3233 106.784 36.0224 106.757 35.7256 106.792C35.4289 106.828 35.1427 106.925 34.8856 107.077C33.6196 107.787 31.9414 108.761 30.7254 109.559C28.1754 107.621 25.848 105.406 23.7857 102.955C26.6377 100.942 29.6298 99.1357 32.7393 97.5494C33.2869 97.255 33.5548 96.9193 33.3811 96.3187C31.1029 88.4337 29.7115 80.3192 29.2326 72.1257C29.2184 71.798 29.0793 71.4883 28.8438 71.26C28.6084 71.0316 28.2945 70.9021 27.9666 70.8979H11.2608C11.1188 70.8995 10.981 70.8497 10.8728 70.7578C10.7646 70.6658 10.6933 70.5378 10.672 70.3974C10.4869 68.9999 10.4043 67.5907 10.4247 66.1812C10.4045 64.7744 10.4892 63.368 10.6779 61.9738C10.6992 61.8334 10.7705 61.7054 10.8787 61.6134C10.9869 61.5215 11.1247 61.4717 11.2667 61.4733H27.9725C28.6467 61.4733 29.2003 61.0847 29.2356 60.4045C29.7081 52.2451 31.0906 44.164 33.3576 36.3116C33.442 36.0249 33.4238 35.7178 33.3061 35.4432C33.1884 35.1686 32.9785 34.9436 32.7128 34.8071C29.6701 33.248 26.735 31.4873 23.9271 29.5368C25.9784 27.0866 28.2598 24.8387 30.7401 22.8239C31.9414 23.6129 33.5077 24.5051 34.762 25.2117C35.0384 25.3688 35.3441 25.4675 35.6602 25.5017C35.9763 25.5359 36.2961 25.5048 36.5997 25.4104C36.9033 25.316 37.1843 25.1603 37.4252 24.9529C37.6662 24.7455 37.8621 24.4909 38.0007 24.2047C38.5542 23.0653 39.1784 21.7963 39.7849 20.7069C40.9111 18.689 42.1435 16.7323 43.477 14.8449C50.8183 11.3864 58.8396 9.61191 66.9546 9.65122C75.4753 9.65122 83.4131 11.7122 90.6648 15.0863C91.9453 16.8841 93.1248 18.7517 94.1979 20.6805C94.9605 22.0525 95.7702 23.7337 96.4533 25.1911C96.5266 25.3463 96.6308 25.4849 96.7595 25.5985C96.8882 25.712 97.0388 25.7982 97.2019 25.8516C97.365 25.9051 97.5373 25.9247 97.7083 25.9094C97.8792 25.894 98.0453 25.8439 98.1963 25.7623C99.7803 24.9055 101.497 23.9191 103.007 22.9269C105.495 24.9615 107.782 27.2291 109.838 29.6987C107.107 31.5928 104.248 33.2957 101.282 34.7953C101.016 34.932 100.806 35.1576 100.688 35.4329C100.571 35.7083 100.554 36.0161 100.64 36.3027C102.944 44.1018 104.313 52.147 104.718 60.2691C104.734 60.5949 104.874 60.9022 105.109 61.1278C105.345 61.3534 105.658 61.4802 105.984 61.4821L122.654 61.4615C122.796 61.4599 122.934 61.5097 123.042 61.6017C123.151 61.6936 123.222 61.8216 123.243 61.962C123.587 64.7604 123.587 67.5902 123.243 70.3885C123.223 70.53 123.152 70.6594 123.044 70.7526C122.936 70.8458 122.797 70.8964 122.654 70.895H105.969C105.641 70.8985 105.327 71.0278 105.091 71.2562C104.856 71.4847 104.717 71.7948 104.703 72.1227C104.245 80.2297 102.875 88.2592 100.619 96.0596C100.534 96.3496 100.552 96.6602 100.669 96.9387C100.787 97.2172 100.997 97.4465 101.264 97.5877C102.736 98.3503 104.376 99.2012 105.79 100.067C107.203 100.932 108.601 101.857 109.95 102.817C107.91 105.275 105.642 107.535 103.178 109.568C102.46 109.094 101.606 108.555 100.87 108.113C100.363 107.819 99.4299 107.298 98.9117 107.006C97.787 106.376 96.5916 106.847 96.0293 108.007C95.4669 109.168 94.6072 110.831 94.0066 111.909C92.8997 113.89 91.6859 115.809 90.3704 117.659C83.1216 121.054 75.4753 122.711 66.9546 122.711C58.4339 122.711 50.8289 121.054 43.5771 117.662Z" fill="white"/>
</svg>
