<svg width="130" height="129" viewBox="0 0 130 129" fill="none" xmlns="http://www.w3.org/2000/svg">
<path d="M64.6421 0C29.0874 0 0.261719 28.8257 0.261719 64.3803C0.261719 99.935 29.0874 128.761 64.6421 128.761C100.197 128.761 129.022 99.935 129.022 64.3803C129.022 28.8257 100.197 0 64.6421 0ZM94.3561 74.285H64.6421C63.3286 74.285 62.069 73.7632 61.1402 72.8345C60.2115 71.9058 59.6897 70.6461 59.6897 69.3327V24.7617C59.6897 23.4482 60.2115 22.1886 61.1402 21.2598C62.069 20.3311 63.3286 19.8093 64.6421 19.8093C65.9555 19.8093 67.2151 20.3311 68.1439 21.2598C69.0726 22.1886 69.5944 23.4482 69.5944 24.7617V64.3803H94.3561C95.6695 64.3803 96.9291 64.9021 97.8579 65.8308C98.7866 66.7596 99.3084 68.0192 99.3084 69.3327C99.3084 70.6461 98.7866 71.9058 97.8579 72.8345C96.9291 73.7632 95.6695 74.285 94.3561 74.285Z" fill="white"/>
</svg>
